<?xml version="1.0" standalone="no"?>
<!DOCTYPE svg PUBLIC "-//W3C//DTD SVG 20010904//EN"
 "http://www.w3.org/TR/2001/REC-SVG-20010904/DTD/svg10.dtd">
<svg version="1.0" xmlns="http://www.w3.org/2000/svg"
 width="780.000000pt" height="780.000000pt" viewBox="0 0 780.000000 780.000000"
 preserveAspectRatio="xMidYMid meet">
<metadata>
Created by potrace 1.14, written by Peter Selinger 2001-2017
</metadata>
<g transform="translate(0.000000,780.000000) scale(0.100000,-0.100000)"
fill="#000000" stroke="none">
<path d="M738 7784 c-343 -62 -619 -320 -710 -664 l-23 -85 0 -3135 c0 -2956
1 -3139 18 -3203 85 -333 330 -582 657 -669 l85 -23 3135 0 c2956 0 3139 1
3203 18 333 85 582 330 669 657 l23 85 0 3135 c0 2956 -1 3139 -18 3203 -84
331 -324 576 -652 669 l-80 23 -3115 2 c-2624 1 -3127 -1 -3192 -13z m3536
-394 c156 -40 285 -131 374 -264 72 -108 93 -176 99 -321 6 -148 -5 -209 -59
-317 -47 -94 -157 -216 -237 -263 l-51 -30 0 -221 0 -221 308 1 c329 1 407 -6
533 -49 164 -56 282 -157 349 -297 76 -159 84 -207 85 -508 0 -296 -8 -349
-71 -488 -37 -82 -120 -176 -191 -218 l-45 -26 54 -35 c71 -47 83 -58 122
-117 44 -67 82 -175 95 -272 6 -44 15 -329 21 -634 5 -305 12 -565 16 -578 l6
-22 -305 0 c-168 0 -308 4 -311 8 -16 26 -29 286 -36 717 -6 412 -10 498 -24
541 -36 114 -74 133 -277 141 l-149 6 0 244 c0 187 3 243 13 244 272 14 295
16 333 36 100 51 129 156 121 444 -6 212 -14 248 -65 303 -57 60 -18 58 -967
66 -837 7 -873 9 -952 29 -97 24 -232 75 -323 121 -335 169 -554 500 -605 918
l-7 52 264 0 263 0 -3 -49 c-5 -71 23 -207 58 -278 43 -87 124 -164 224 -213
141 -70 187 -77 564 -85 l332 -7 0 224 0 223 -51 30 c-112 66 -221 200 -268
329 -24 65 -26 84 -26 221 0 146 1 152 33 230 121 301 444 465 756 385z m121
-4025 l-7 -1755 58 20 c128 44 256 118 366 212 l27 23 -61 68 c-33 37 -58 70
-56 73 11 10 859 236 866 230 3 -4 -160 -630 -210 -804 l-21 -73 -82 81 -81
81 -74 -65 c-41 -36 -112 -89 -158 -118 -314 -200 -410 -275 -537 -418 -89
-101 -204 -274 -260 -393 -26 -54 -48 -97 -50 -95 -2 2 -28 53 -58 113 -158
314 -367 538 -670 717 -121 71 -234 150 -302 212 l-50 44 -77 -76 c-48 -47
-81 -73 -86 -67 -11 12 -235 855 -229 861 6 6 854 -220 865 -231 3 -3 -23 -34
-57 -69 -35 -35 -61 -69 -57 -74 12 -20 153 -120 217 -156 70 -38 199 -90 206
-82 3 3 8 720 12 1593 l6 1589 38 76 c42 85 108 153 189 194 68 34 108 42 232
43 l109 1 -8 -1755z"/>
<path d="M4041 6999 c-46 -14 -127 -97 -140 -145 -31 -112 14 -220 112 -269
89 -44 184 -30 256 38 94 89 95 224 3 316 -66 65 -142 85 -231 60z"/>
</g>
</svg>
